<svg xmlns="http://www.w3.org/2000/svg" width="600" height="116" viewBox="0 0 600 116"><rect width="100%" height="100%" fill="#DDDDDD"/><path fill="#999999" d="m182.67 50.865.49 2.35q.9-.9 1.9-1.67t2.12-1.3q1.11-.54 2.39-.84 1.27-.31 2.78-.31 2.44 0 4.32.83 1.89.82 3.15 2.32 1.26 1.49 1.91 3.57.66 2.07.66 4.56v18.94h-7.17v-18.94q0-2.72-1.24-4.22-1.25-1.49-3.8-1.49-1.86 0-3.48.84-1.63.84-3.08 2.29v21.52h-7.16v-29.75h4.38q1.39 0 1.83 1.3m39.67-1.77q3.3 0 6.02 1.07 2.71 1.08 4.64 3.05 1.92 1.97 2.97 4.81 1.04 2.85 1.04 6.35 0 3.54-1.04 6.39-1.05 2.84-2.97 4.84-1.93 2-4.64 3.07-2.72 1.07-6.02 1.07-3.34 0-6.06-1.07-2.73-1.07-4.66-3.07t-2.98-4.84q-1.06-2.85-1.06-6.39 0-3.5 1.06-6.35 1.05-2.84 2.98-4.81t4.66-3.05q2.72-1.07 6.06-1.07m0 25.14q3.71 0 5.49-2.49 1.79-2.49 1.79-7.31 0-4.81-1.79-7.33-1.78-2.53-5.49-2.53-3.77 0-5.58 2.54-1.82 2.54-1.82 7.32 0 4.79 1.82 7.3 1.81 2.5 5.58 2.5m30.07 5.54q-3.88 0-5.96-2.19-2.07-2.19-2.07-6.04v-16.62h-3.05q-.58 0-.98-.38-.41-.37-.41-1.13v-2.84l4.79-.78 1.5-8.12q.15-.58.56-.9.4-.32 1.04-.32h3.71v9.37h7.95v5.1h-7.95v16.12q0 1.4.68 2.18t1.87.78q.67 0 1.12-.16t.78-.33q.34-.17.6-.33t.52-.16q.32 0 .52.16t.44.47l2.14 3.48q-1.56 1.31-3.59 1.98-2.03.66-4.21.66m35-.46h-7.16v-24.36l-2.58-.41q-.84-.17-1.35-.59t-.51-1.2v-2.93h4.44v-2.21q0-2.55.77-4.58t2.2-3.45q1.44-1.42 3.5-2.18 2.06-.75 4.64-.75 2.06 0 3.83.55l-.15 3.6q-.03.4-.23.65t-.54.38q-.33.13-.77.17-.43.04-.92.04-1.28 0-2.28.28t-1.7.96q-.69.68-1.06 1.8-.36 1.11-.36 2.77v1.97h7.75v5.1h-7.52zm24.71-30.22q3.31 0 6.02 1.07 2.71 1.08 4.64 3.05t2.97 4.81q1.05 2.85 1.05 6.35 0 3.54-1.05 6.39-1.04 2.84-2.97 4.84t-4.64 3.07-6.02 1.07q-3.33 0-6.06-1.07-2.72-1.07-4.65-3.07t-2.99-4.84q-1.06-2.85-1.06-6.39 0-3.5 1.06-6.35 1.06-2.84 2.99-4.81t4.65-3.05q2.73-1.07 6.06-1.07m0 25.14q3.71 0 5.5-2.49 1.78-2.49 1.78-7.31 0-4.81-1.78-7.33-1.79-2.53-5.5-2.53-3.77 0-5.58 2.54t-1.81 7.32q0 4.79 1.81 7.3 1.81 2.5 5.58 2.5m38.63-24.67h7.16v29.75h-4.38q-1.42 0-1.79-1.31l-.5-2.37q-1.82 1.85-4.03 3-2.2 1.14-5.19 1.14-2.43 0-4.31-.82-1.87-.83-3.14-2.34-1.28-1.51-1.93-3.58t-.65-4.57v-18.9h7.16v18.9q0 2.73 1.26 4.22 1.26 1.5 3.79 1.5 1.85 0 3.48-.83 1.62-.83 3.07-2.28zm20.45 1.3.49 2.35q.9-.9 1.9-1.67t2.11-1.3q1.12-.54 2.4-.84 1.27-.31 2.78-.31 2.44 0 4.32.83 1.89.82 3.15 2.32 1.26 1.49 1.91 3.57.66 2.07.66 4.56v18.94h-7.17v-18.94q0-2.72-1.24-4.22-1.25-1.49-3.8-1.49-1.86 0-3.48.84-1.63.84-3.08 2.29v21.52h-7.16v-29.75h4.38q1.39 0 1.83 1.3m45.18 19.63v-13.34q-1.22-1.48-2.66-2.08-1.43-.61-3.08-.61-1.63 0-2.93.61-1.31.6-2.24 1.84-.92 1.23-1.42 3.13-.49 1.9-.49 4.48 0 2.61.42 4.42.42 1.82 1.2 2.96.79 1.15 1.92 1.65 1.13.51 2.52.51 2.23 0 3.8-.93t2.96-2.64m0-34.27h7.16v43.09h-4.38q-1.42 0-1.8-1.31l-.61-2.87q-1.79 2.06-4.13 3.34-2.33 1.27-5.44 1.27-2.43 0-4.46-1.01t-3.5-2.94q-1.46-1.93-2.26-4.77-.8-2.85-.8-6.5 0-3.31.9-6.15t2.58-4.93q1.69-2.09 4.04-3.26 2.34-1.18 5.27-1.18 2.5 0 4.27.79 1.77.78 3.16 2.11z"/></svg>